<svg xmlns="http://www.w3.org/2000/svg" width="880" height="1210" viewBox="0 0 880 1210">
<defs>
  <marker id="arr" viewBox="0 0 10 10" refX="9" refY="5" markerWidth="7" markerHeight="7" orient="auto-start-reverse">
    <path d="M0,0 L10,5 L0,10 z" fill="#9aa4af"/>
  </marker>
  <filter id="sh" x="-20%" y="-20%" width="140%" height="160%">
    <feDropShadow dx="0" dy="1.5" stdDeviation="2" flood-color="#1c2228" flood-opacity="0.10"/>
  </filter>
</defs>
<rect width="880" height="1210" fill="#ffffff"/>
<rect x="320" y="20" width="300" height="44" rx="8" fill="#ffffff" stroke="#d6dbe1" stroke-width="1" filter="url(#sh)"/>
<text x="470.0" y="45.5" text-anchor="middle" font-family="'Helvetica Neue',Helvetica,Arial,sans-serif" font-size="12.5" font-weight="600" fill="#1c2228">Run scan-sbom.sh</text>
<rect x="320" y="108" width="300" height="44" rx="8" fill="#ffffff" stroke="#d6dbe1" stroke-width="1" filter="url(#sh)"/>
<text x="470.0" y="133.5" text-anchor="middle" font-family="'Helvetica Neue',Helvetica,Arial,sans-serif" font-size="12.5" font-weight="600" fill="#1c2228">Detect target type</text>
<path d="M470.0,64 L470.0,108" fill="none" stroke="#9aa4af" stroke-width="1.5" marker-end="url(#arr)"/>
<rect x="60" y="208" width="300" height="46" rx="8" fill="#ffffff" stroke="#d6dbe1" stroke-width="1" filter="url(#sh)"/>
<text x="210.0" y="234.5" text-anchor="middle" font-family="'Helvetica Neue',Helvetica,Arial,sans-serif" font-size="12.5" font-weight="600" fill="#1c2228">Detect language → pull image</text>
<rect x="60" y="286" width="300" height="60" rx="8" fill="#ffffff" stroke="#d6dbe1" stroke-width="1" filter="url(#sh)"/>
<text x="210.0" y="312.0" text-anchor="middle" font-family="'Helvetica Neue',Helvetica,Arial,sans-serif" font-size="12.5" font-weight="600" fill="#1c2228">1  build-prep.sh</text>
<text x="210.0" y="330.0" text-anchor="middle" font-family="'Helvetica Neue',Helvetica,Arial,sans-serif" font-size="11" fill="#5c6773">cargo · go · bundle · mvn · pip</text>
<rect x="60" y="378" width="300" height="46" rx="8" fill="#ffffff" stroke="#d6dbe1" stroke-width="1" filter="url(#sh)"/>
<text x="210.0" y="404.5" text-anchor="middle" font-family="'Helvetica Neue',Helvetica,Arial,sans-serif" font-size="12.5" font-weight="600" fill="#1c2228">2  cdxgen --spec-version 1.6</text>
<rect x="540" y="286" width="280" height="60" rx="8" fill="#ffffff" stroke="#d6dbe1" stroke-width="1" filter="url(#sh)"/>
<text x="680.0" y="312.0" text-anchor="middle" font-family="'Helvetica Neue',Helvetica,Arial,sans-serif" font-size="12.5" font-weight="600" fill="#1c2228">syft</text>
<text x="680.0" y="330.0" text-anchor="middle" font-family="'Helvetica Neue',Helvetica,Arial,sans-serif" font-size="11" fill="#5c6773">-o cyclonedx-json</text>
<path d="M320,130 L210.0,130 L210.0,208" fill="none" stroke="#9aa4af" stroke-width="1.5" marker-end="url(#arr)"/>
<text x="202.0" y="178" text-anchor="end" font-family="'Helvetica Neue',Helvetica,Arial,sans-serif" font-size="10.5" font-weight="400" fill="#8a94a0">directory = source</text>
<path d="M620,130 L680.0,130 L680.0,286" fill="none" stroke="#9aa4af" stroke-width="1.5" marker-end="url(#arr)"/>
<text x="688.0" y="178" text-anchor="start" font-family="'Helvetica Neue',Helvetica,Arial,sans-serif" font-size="10.5" font-weight="400" fill="#8a94a0">image / file / RootFS</text>
<path d="M210.0,254 L210.0,286" fill="none" stroke="#9aa4af" stroke-width="1.5" marker-end="url(#arr)"/>
<path d="M210.0,346 L210.0,378" fill="none" stroke="#9aa4af" stroke-width="1.5" marker-end="url(#arr)"/>
<rect x="375" y="470" width="190" height="56" rx="8" fill="#ffffff" stroke="#EA002C" stroke-width="1.6" filter="url(#sh)"/>
<text x="470.0" y="501.5" text-anchor="middle" font-family="'Helvetica Neue',Helvetica,Arial,sans-serif" font-size="12.5" font-weight="600" fill="#EA002C">bom.json</text>
<path d="M210.0,424 L210.0,446 L440.0,446 L440.0,470" fill="none" stroke="#9aa4af" stroke-width="1.5" marker-end="url(#arr)"/>
<path d="M680.0,346 L680.0,446 L500.0,446 L500.0,470" fill="none" stroke="#9aa4af" stroke-width="1.5" marker-end="url(#arr)"/>
<rect x="320" y="560" width="300" height="46" rx="8" fill="#ffffff" stroke="#d6dbe1" stroke-width="1" filter="url(#sh)"/>
<text x="470.0" y="586.5" text-anchor="middle" font-family="'Helvetica Neue',Helvetica,Arial,sans-serif" font-size="12.5" font-weight="600" fill="#1c2228">3  normalize-sbom.sh (jq)</text>
<rect x="644" y="574.0" width="54" height="18" rx="9" fill="#f1f3f5" stroke="#e3e7ec"/>
<text x="671" y="586.5" text-anchor="middle" font-family="SFMono-Regular,Menlo,Consolas,monospace" font-size="10" fill="#5c6773">always</text>
<rect x="320" y="632" width="300" height="61" rx="8" fill="#ffffff" stroke="#d6dbe1" stroke-width="1" stroke-dasharray="5 4" filter="url(#sh)"/>
<text x="470.0" y="658.5" text-anchor="middle" font-family="'Helvetica Neue',Helvetica,Arial,sans-serif" font-size="12.5" font-weight="600" fill="#1c2228">4  scancode</text>
<text x="470.0" y="676.5" text-anchor="middle" font-family="'Helvetica Neue',Helvetica,Arial,sans-serif" font-size="11" fill="#5c6773">1st-party licenses</text>
<rect x="644" y="653.5" width="106" height="18" rx="9" fill="#f1f3f5" stroke="#e3e7ec"/>
<text x="697" y="666.0" text-anchor="middle" font-family="SFMono-Regular,Menlo,Consolas,monospace" font-size="10" fill="#5c6773">--deep-license</text>
<rect x="320" y="719" width="300" height="61" rx="8" fill="#ffffff" stroke="#d6dbe1" stroke-width="1" stroke-dasharray="5 4" filter="url(#sh)"/>
<text x="470.0" y="745.5" text-anchor="middle" font-family="'Helvetica Neue',Helvetica,Arial,sans-serif" font-size="12.5" font-weight="600" fill="#1c2228">5  generate-notice.sh (jq)</text>
<text x="470.0" y="763.5" text-anchor="middle" font-family="'Helvetica Neue',Helvetica,Arial,sans-serif" font-size="11" fill="#5c6773">NOTICE.txt / .html</text>
<rect x="644" y="740.5" width="118" height="18" rx="9" fill="#f1f3f5" stroke="#e3e7ec"/>
<text x="703" y="753.0" text-anchor="middle" font-family="SFMono-Regular,Menlo,Consolas,monospace" font-size="10" fill="#5c6773">--notice / --all</text>
<rect x="320" y="806" width="300" height="61" rx="8" fill="#ffffff" stroke="#d6dbe1" stroke-width="1" stroke-dasharray="5 4" filter="url(#sh)"/>
<text x="470.0" y="832.5" text-anchor="middle" font-family="'Helvetica Neue',Helvetica,Arial,sans-serif" font-size="12.5" font-weight="600" fill="#1c2228">6  scan-security.sh</text>
<text x="470.0" y="850.5" text-anchor="middle" font-family="'Helvetica Neue',Helvetica,Arial,sans-serif" font-size="11" fill="#5c6773">Trivy → json / md / html</text>
<rect x="644" y="827.5" width="131" height="18" rx="9" fill="#f1f3f5" stroke="#e3e7ec"/>
<text x="710" y="840.0" text-anchor="middle" font-family="SFMono-Regular,Menlo,Consolas,monospace" font-size="10" fill="#5c6773">--security / --all</text>
<rect x="320" y="893" width="300" height="61" rx="8" fill="#ffffff" stroke="#d6dbe1" stroke-width="1" stroke-dasharray="5 4" filter="url(#sh)"/>
<text x="470.0" y="919.5" text-anchor="middle" font-family="'Helvetica Neue',Helvetica,Arial,sans-serif" font-size="12.5" font-weight="600" fill="#1c2228">7  cosign sign-blob</text>
<text x="470.0" y="937.5" text-anchor="middle" font-family="'Helvetica Neue',Helvetica,Arial,sans-serif" font-size="11" fill="#5c6773">bom.json.sig</text>
<rect x="644" y="914.5" width="54" height="18" rx="9" fill="#f1f3f5" stroke="#e3e7ec"/>
<text x="671" y="927.0" text-anchor="middle" font-family="SFMono-Regular,Menlo,Consolas,monospace" font-size="10" fill="#5c6773">--sign</text>
<rect x="320" y="980" width="300" height="46" rx="8" fill="#ffffff" stroke="#d6dbe1" stroke-width="1" filter="url(#sh)"/>
<text x="470.0" y="1006.5" text-anchor="middle" font-family="'Helvetica Neue',Helvetica,Arial,sans-serif" font-size="12.5" font-weight="600" fill="#1c2228">8  Copy artifacts to host</text>
<rect x="644" y="994.0" width="54" height="18" rx="9" fill="#f1f3f5" stroke="#e3e7ec"/>
<text x="671" y="1006.5" text-anchor="middle" font-family="SFMono-Regular,Menlo,Consolas,monospace" font-size="10" fill="#5c6773">always</text>
<rect x="320" y="1052" width="300" height="46" rx="8" fill="#ffffff" stroke="#d6dbe1" stroke-width="1" stroke-dasharray="5 4" filter="url(#sh)"/>
<text x="470.0" y="1078.5" text-anchor="middle" font-family="'Helvetica Neue',Helvetica,Arial,sans-serif" font-size="12.5" font-weight="600" fill="#1c2228">9  curl → Dependency-Track</text>
<rect x="644" y="1066.0" width="214" height="18" rx="9" fill="#f1f3f5" stroke="#e3e7ec"/>
<text x="751" y="1078.5" text-anchor="middle" font-family="SFMono-Regular,Menlo,Consolas,monospace" font-size="10" fill="#5c6773">default · skip: --generate-only</text>
<path d="M470.0,606 L470.0,632" fill="none" stroke="#9aa4af" stroke-width="1.5" marker-end="url(#arr)"/>
<path d="M470.0,693 L470.0,719" fill="none" stroke="#9aa4af" stroke-width="1.5" marker-end="url(#arr)"/>
<path d="M470.0,780 L470.0,806" fill="none" stroke="#9aa4af" stroke-width="1.5" marker-end="url(#arr)"/>
<path d="M470.0,867 L470.0,893" fill="none" stroke="#9aa4af" stroke-width="1.5" marker-end="url(#arr)"/>
<path d="M470.0,954 L470.0,980" fill="none" stroke="#9aa4af" stroke-width="1.5" marker-end="url(#arr)"/>
<path d="M470.0,1026 L470.0,1052" fill="none" stroke="#9aa4af" stroke-width="1.5" marker-end="url(#arr)"/>
<path d="M470.0,526 L470.0,560" fill="none" stroke="#9aa4af" stroke-width="1.5" marker-end="url(#arr)"/>
<rect x="400.0" y="1124" width="140" height="40" rx="8" fill="#ffffff" stroke="#d6dbe1" stroke-width="1" filter="url(#sh)"/>
<text x="470.0" y="1147.5" text-anchor="middle" font-family="'Helvetica Neue',Helvetica,Arial,sans-serif" font-size="12.5" font-weight="600" fill="#1c2228">Done</text>
<path d="M470.0,1098 L470.0,1124" fill="none" stroke="#9aa4af" stroke-width="1.5" marker-end="url(#arr)"/>
<text x="60" y="545" text-anchor="start" font-family="'Helvetica Neue',Helvetica,Arial,sans-serif" font-size="11" font-weight="400" fill="#8a94a0">Dashed steps run only with their flag.</text>
</svg>
