<svg xmlns="http://www.w3.org/2000/svg" width="940" height="330" viewBox="0 0 940 330">
<defs>
  <marker id="arr" viewBox="0 0 10 10" refX="9" refY="5" markerWidth="7" markerHeight="7" orient="auto-start-reverse">
    <path d="M0,0 L10,5 L0,10 z" fill="#9aa4af"/>
  </marker>
  <filter id="sh" x="-20%" y="-20%" width="140%" height="160%">
    <feDropShadow dx="0" dy="1.5" stdDeviation="2" flood-color="#1c2228" flood-opacity="0.10"/>
  </filter>
</defs>
<rect width="940" height="330" fill="#ffffff"/>
<rect x="30" y="36" width="180" height="46" rx="8" fill="#ffffff" stroke="#d6dbe1" stroke-width="1" filter="url(#sh)"/>
<text x="120.0" y="59.0" text-anchor="middle" font-family="'Apple SD Gothic Neo','Noto Sans CJK KR','Malgun Gothic',sans-serif" font-size="17" font-weight="600" fill="#1c2228">소스 코드</text>
<rect x="30" y="102" width="180" height="46" rx="8" fill="#ffffff" stroke="#d6dbe1" stroke-width="1" filter="url(#sh)"/>
<text x="120.0" y="125.0" text-anchor="middle" font-family="'Apple SD Gothic Neo','Noto Sans CJK KR','Malgun Gothic',sans-serif" font-size="17" font-weight="600" fill="#1c2228">펌웨어</text>
<rect x="30" y="168" width="180" height="46" rx="8" fill="#ffffff" stroke="#d6dbe1" stroke-width="1" filter="url(#sh)"/>
<text x="120.0" y="191.0" text-anchor="middle" font-family="'Apple SD Gothic Neo','Noto Sans CJK KR','Malgun Gothic',sans-serif" font-size="17" font-weight="600" fill="#1c2228">수신 SBOM</text>
<rect x="30" y="234" width="180" height="46" rx="8" fill="#ffffff" stroke="#d6dbe1" stroke-width="1" filter="url(#sh)"/>
<text x="120.0" y="257.0" text-anchor="middle" font-family="'Apple SD Gothic Neo','Noto Sans CJK KR','Malgun Gothic',sans-serif" font-size="17" font-weight="600" fill="#1c2228">AI 모델</text>
<rect x="290" y="108" width="220" height="88" rx="8" fill="#ffffff" stroke="#d6dbe1" stroke-width="1" filter="url(#sh)"/>
<text x="400.0" y="142.0" text-anchor="middle" font-family="'Apple SD Gothic Neo','Noto Sans CJK KR','Malgun Gothic',sans-serif" font-size="17" font-weight="600" fill="#1c2228">입력별 생성</text>
<text x="400.0" y="167.0" text-anchor="middle" font-family="'Apple SD Gothic Neo','Noto Sans CJK KR','Malgun Gothic',sans-serif" font-size="14" fill="#5c6773">(이 페이지)</text>
<path d="M210,59 L250,59 L250,132 L290,132" fill="none" stroke="#9aa4af" stroke-width="1.5" marker-end="url(#arr)"/>
<path d="M210,125 L250,125 L250,145 L290,145" fill="none" stroke="#9aa4af" stroke-width="1.5" marker-end="url(#arr)"/>
<path d="M210,191 L250,191 L250,159 L290,159" fill="none" stroke="#9aa4af" stroke-width="1.5" marker-end="url(#arr)"/>
<path d="M210,257 L250,257 L250,172 L290,172" fill="none" stroke="#9aa4af" stroke-width="1.5" marker-end="url(#arr)"/>
<rect x="566" y="118" width="200" height="68" rx="8" fill="#ffffff" stroke="#d6dbe1" stroke-width="1" filter="url(#sh)"/>
<text x="666.0" y="152.0" text-anchor="middle" font-family="'Apple SD Gothic Neo','Noto Sans CJK KR','Malgun Gothic',sans-serif" font-size="17" font-weight="600" fill="#1c2228">공통 후처리</text>
<path d="M510,152 L566,152" fill="none" stroke="#9aa4af" stroke-width="1.5" marker-end="url(#arr)"/>
<rect x="806" y="88" width="132" height="128" rx="8" fill="#ffffff" stroke="#d6dbe1" stroke-width="1" filter="url(#sh)"/>
<text x="872.0" y="112.0" text-anchor="middle" font-family="'Apple SD Gothic Neo','Noto Sans CJK KR','Malgun Gothic',sans-serif" font-size="17" font-weight="600" fill="#1c2228">산출물</text>
<text x="872.0" y="137.0" text-anchor="middle" font-family="'Apple SD Gothic Neo','Noto Sans CJK KR','Malgun Gothic',sans-serif" font-size="14" fill="#5c6773">SBOM</text>
<text x="872.0" y="157.0" text-anchor="middle" font-family="'Apple SD Gothic Neo','Noto Sans CJK KR','Malgun Gothic',sans-serif" font-size="14" fill="#5c6773">고지문</text>
<text x="872.0" y="177.0" text-anchor="middle" font-family="'Apple SD Gothic Neo','Noto Sans CJK KR','Malgun Gothic',sans-serif" font-size="14" fill="#5c6773">보안 보고서</text>
<text x="872.0" y="197.0" text-anchor="middle" font-family="'Apple SD Gothic Neo','Noto Sans CJK KR','Malgun Gothic',sans-serif" font-size="14" fill="#5c6773">위험분석 보고서</text>
<path d="M766,152 L806,152" fill="none" stroke="#9aa4af" stroke-width="1.5" marker-end="url(#arr)"/>
</svg>
